<svg xmlns="http://www.w3.org/2000/svg" width="280.921" height="57.737" viewBox="0 0 280.921 57.737"><g transform="translate(0 0)"><g transform="translate(78.334 19.448)"><path d="M291.692,100.647H275.086a4.825,4.825,0,0,0,2.11,3.724,8.2,8.2,0,0,0,10.513-1.1l2.549,2.787a11.847,11.847,0,0,1-8.92,3.544,10.614,10.614,0,0,1-7.586-2.967,10.459,10.459,0,0,1-3.126-7.964,10.294,10.294,0,0,1,3.186-7.944,10.692,10.692,0,0,1,7.506-2.946,10.871,10.871,0,0,1,7.347,2.608,8.991,8.991,0,0,1,3.027,7.188Zm-16.606-3.5h12.146a5.106,5.106,0,0,0-1.673-4.1,6.114,6.114,0,0,0-4.121-1.434,7.054,7.054,0,0,0-4.4,1.494A4.82,4.82,0,0,0,275.086,97.143Z" transform="translate(-270.626 -81.823)" fill="#1f1f1f"/><path d="M373.577,109.288h-4.062v-2.827a8.713,8.713,0,0,1-7.048,3.146,8.082,8.082,0,0,1-5.476-1.871,6.266,6.266,0,0,1-2.17-5,5.259,5.259,0,0,1,2.31-4.679,11.061,11.061,0,0,1,6.252-1.553h5.774v-.8q0-4.221-4.7-4.221a11.017,11.017,0,0,0-6.133,2.15l-1.991-2.788a13.716,13.716,0,0,1,8.761-3.066,9.5,9.5,0,0,1,6.113,1.891q2.368,1.892,2.369,5.953Zm-4.46-7.885V99.612H364.1q-4.819,0-4.819,3.027a2.691,2.691,0,0,0,1.195,2.369,5.835,5.835,0,0,0,3.325.816,6.034,6.034,0,0,0,3.723-1.195A3.823,3.823,0,0,0,369.117,101.4Z" transform="translate(-330.45 -81.823)" fill="#1f1f1f"/><path d="M442.566,77.053V87.8a3.491,3.491,0,0,0,.8,2.409,2.828,2.828,0,0,0,2.23.9,3.8,3.8,0,0,0,2.748-1.394l1.832,3.146a7.6,7.6,0,0,1-5.2,2.11A6.687,6.687,0,0,1,440.117,93a7.1,7.1,0,0,1-2.011-5.316V77.053h-2.668V73.469h2.668v-6.28h4.46v6.28h5.575v3.584Z" transform="translate(-387.732 -67.189)" fill="#1f1f1f"/><path d="M847.027,77.053V87.8a3.491,3.491,0,0,0,.8,2.409,2.827,2.827,0,0,0,2.23.9,3.8,3.8,0,0,0,2.748-1.394l1.832,3.146a7.6,7.6,0,0,1-5.2,2.11A6.687,6.687,0,0,1,844.578,93a7.1,7.1,0,0,1-2.011-5.316V77.053H839.9V73.469h2.668v-6.28h4.46v6.28H852.6v3.584Z" transform="translate(-675.119 -67.189)" fill="#1f1f1f"/><path d="M514.972,100.647H498.367a4.826,4.826,0,0,0,2.11,3.724,8.2,8.2,0,0,0,10.513-1.1l2.549,2.787a11.847,11.847,0,0,1-8.92,3.544,10.614,10.614,0,0,1-7.586-2.967,10.459,10.459,0,0,1-3.126-7.964,10.3,10.3,0,0,1,3.186-7.944,10.692,10.692,0,0,1,7.506-2.946,10.872,10.872,0,0,1,7.347,2.608,8.991,8.991,0,0,1,3.026,7.188Zm-16.606-3.5h12.146a5.107,5.107,0,0,0-1.672-4.1,6.115,6.115,0,0,0-4.122-1.434,7.054,7.054,0,0,0-4.4,1.494A4.821,4.821,0,0,0,498.367,97.143Z" transform="translate(-429.277 -81.823)" fill="#1f1f1f"/><path d="M599.578,109.288h-4.062v-2.827a8.713,8.713,0,0,1-7.049,3.146,8.082,8.082,0,0,1-5.475-1.871,6.266,6.266,0,0,1-2.17-5,5.259,5.259,0,0,1,2.31-4.679,11.061,11.061,0,0,1,6.252-1.553h5.774v-.8q0-4.221-4.7-4.221a11.016,11.016,0,0,0-6.133,2.15l-1.991-2.788a13.716,13.716,0,0,1,8.761-3.066,9.5,9.5,0,0,1,6.113,1.891q2.368,1.892,2.369,5.953Zm-4.46-7.885V99.612H590.1q-4.819,0-4.819,3.027a2.691,2.691,0,0,0,1.195,2.369,5.834,5.834,0,0,0,3.325.816,6.034,6.034,0,0,0,3.723-1.195A3.823,3.823,0,0,0,595.118,101.4Z" transform="translate(-491.034 -81.823)" fill="#1f1f1f"/><path d="M674.713,92.284a5.918,5.918,0,0,0-4.977,2.15,9.162,9.162,0,0,0-1.673,5.774v9.079H663.6V88.1h4.46v4.261A9.239,9.239,0,0,1,670.99,89.1a7.048,7.048,0,0,1,3.922-1.314l.04,4.5Z" transform="translate(-549.853 -81.823)" fill="#1f1f1f"/><path d="M723.433,97.82v11.469h-4.46V88.1h4.46v3.863a8.317,8.317,0,0,1,12.843-1.991,8.527,8.527,0,0,1,2.21,6.332v12.982h-4.46V97.66q0-5.854-4.858-5.854a5.836,5.836,0,0,0-4.022,1.533A5.7,5.7,0,0,0,723.433,97.82Z" transform="translate(-589.196 -81.823)" fill="#1f1f1f"/><path d="M811.549,110.069h-4.46V88.884h4.46Z" transform="translate(-651.806 -82.604)" fill="#1f1f1f"/><path d="M911.185,88.884l-6.331,15.61-6.332-15.61h-4.779q8.562,21.226,8.562,21.783a3.51,3.51,0,0,1-.936,2.35,3.07,3.07,0,0,1-2.429,1.075,4.106,4.106,0,0,1-2.737-1.182v4.933a7.346,7.346,0,0,0,3.075.668,6.467,6.467,0,0,0,3.783-1.195,7.658,7.658,0,0,0,2.628-3.265l10.274-25.167Z" transform="translate(-713.378 -82.604)" fill="#1f1f1f"/><rect width="4.465" height="4.465" transform="translate(155.28 0)" fill="#1f1f1f"/></g><g transform="translate(0 0)"><path d="M113.171,106.571c7.417,1.589,15.522-2.018,18.74-8.931a14.9,14.9,0,0,0,1.4-6.323c0-9.268-7.572-14.037-13.556-15.207-5.485-1.073-12.43.19-16.626,6.411a16.7,16.7,0,0,0-1.141,15.508c.027.059.151.324.236.5A17.74,17.74,0,0,0,113.171,106.571Z" transform="translate(-71.475 -53.836)" fill="#eb2027"/><g transform="translate(0 17.31)"><path d="M106.209,154.363h0l-.008-.016Z" transform="translate(-75.461 -126.982)" fill="none"/><path d="M107.328,96.975a16.624,16.624,0,0,0,4.181,5.444,17.367,17.367,0,0,0,2.635,1.58,17.53,17.53,0,0,0,18.223-1.808,15.29,15.29,0,0,0,3.259-4.551,14.9,14.9,0,0,0,1.4-6.323c0-9.268-7.572-14.037-13.556-15.207a16.494,16.494,0,0,0-13.652,3.119A16.7,16.7,0,0,0,107.328,96.975Z" transform="translate(-75.19 -71.146)" fill="none"/><path d="M102.223,107.027a17.76,17.76,0,0,0,10.948,8.056,17.36,17.36,0,0,0,15.481-4.394,17.53,17.53,0,0,1-18.223,1.808,17.366,17.366,0,0,1-2.635-1.58,16.3,16.3,0,0,1-1.693-23.19,15.351,15.351,0,0,0-2.973,3.291,16.7,16.7,0,0,0-1.141,15.509c.027.057.144.31.229.484Z" transform="translate(-71.475 -79.644)" fill="#b92025"/><path d="M105.64,153.161c-.085-.174-.2-.427-.229-.484q.055.122.112.244T105.64,153.161Z" transform="translate(-74.899 -125.794)" fill="#362e31"/><path d="M62.153,66.271a23.241,23.241,0,0,0-12.372-6.144c-9.083-1.5-17.348,2.332-21.642,9.282a31.3,31.3,0,0,0-3.314,8.4c-.225.762-.438,1.531-.643,2.274A27.99,27.99,0,0,1,21.3,87.7c-3.418,5.35-8.487,5.349-11.926,3.722A12.483,12.483,0,0,1,2.548,79.866a14.575,14.575,0,0,1,.622-4.247c1.5-4.927,5.727-8.449,10.3-8.251,3.2.138,6.3,2.084,8.456,5.418a4.694,4.694,0,0,0,.309.486,25.483,25.483,0,0,1,1.725-3.864c.037-.06.077-.117.115-.176A13.452,13.452,0,0,0,13.833,63.68C7.958,63.6,2.63,68.219.77,74.486A18.837,18.837,0,0,0,0,79.854a17.617,17.617,0,0,0,2.409,9.066,15.223,15.223,0,0,0,6.114,5.786,12.6,12.6,0,0,0,4.022,1.261c4.417.582,8.8-1.416,11.724-5.844a31.243,31.243,0,0,0,3.514-8.851c.217-.762.441-1.553.674-2.314.015-.048.028-.1.04-.148a27.3,27.3,0,0,1,2.92-7.272c.078-.122.157-.242.237-.361h0a15.351,15.351,0,0,1,2.973-3.291,16.494,16.494,0,0,1,13.652-3.119c5.984,1.17,13.556,5.939,13.556,15.207a14.9,14.9,0,0,1-1.4,6.323,15.29,15.29,0,0,1-3.259,4.551A17.526,17.526,0,0,1,41.7,95.228a17.926,17.926,0,0,1-11.19-8.554c-.463,1.121-1.7,4.015-1.826,4.2a20.99,20.99,0,0,0,12.481,8.74,21.684,21.684,0,0,0,2.3.43c9.012,1.187,18.548-3.262,22.587-11.622A19.235,19.235,0,0,0,67.975,80,18.937,18.937,0,0,0,62.153,66.271Z" transform="translate(0 -59.803)" fill="#1f1f1f"/></g><path d="M150.752,8.465a11.967,11.967,0,0,0-6.5-6.621,12.529,12.529,0,0,0-4.368-.7,12.315,12.315,0,0,0-2.056.173,11.959,11.959,0,0,0-6.978,3.907,9.653,9.653,0,0,0-1.864-2.729A8.563,8.563,0,0,0,126.249.6a7.424,7.424,0,0,0-3.368-.588,7.14,7.14,0,0,0-2.431.592c-.867.379-4.066,2.4-3.518,3.913.216.6.931.747,1.758.922a5.384,5.384,0,0,1,2.106.726,6.164,6.164,0,0,1,1.338,1.779c.276.412.556.822.868,1.209a9.363,9.363,0,0,0,2.738,2.333,10.034,10.034,0,0,0,2.274.907q.142.038.283.063a60.086,60.086,0,0,0-1.948,11.916c-.028.32-.049.641-.061.965,0,.021,0,.041,0,.061a.183.183,0,0,1-.241.178l-.247-.084c-.427-.147-.869-.3-1.348-.419a1.2,1.2,0,0,0-1.452.87,1.184,1.184,0,0,0,.075.782,5.127,5.127,0,0,0,2.216,1c1.576.255,2.566-.69,3.956-1.318.579-.261,2.6-.438,2.539-1.227.018-.141-.047-.147-.113-.125a24.37,24.37,0,0,1-2.538.723.36.36,0,0,1-.431-.406.348.348,0,0,0,0-.04,55.8,55.8,0,0,1,1.88-12.17l.045.012a10.351,10.351,0,0,0,5.476-.254,32.654,32.654,0,0,0,4.554-1.946,11.5,11.5,0,0,1,3.674-1.2,9.819,9.819,0,0,1,4.23.47c.65.221,1.46.5,1.989.12a.988.988,0,0,0,.391-.85A3.408,3.408,0,0,0,150.752,8.465Z" transform="translate(-83.04 0)" fill="#1f1f1f"/><path d="M180.3,100.368a1.038,1.038,0,0,1-1.017-.839,7.382,7.382,0,0,0-.783-2.04,1.038,1.038,0,0,1,1.807-1.02,9.46,9.46,0,0,1,1.013,2.662,1.039,1.039,0,0,1-1.019,1.237Zm-1.915-5.327a1.037,1.037,0,0,0,.146-1.46,13.235,13.235,0,0,0-4.927-3.735,1.037,1.037,0,1,0-.829,1.9,11.147,11.147,0,0,1,4.151,3.148,1.037,1.037,0,0,0,1.46.146Z" transform="translate(-122.32 -63.778)" fill="#fff"/><g transform="translate(44.49 5.596)"><path d="M153.709,19.452a.083.083,0,0,1,.063-.118A.083.083,0,0,0,153.709,19.452Z" transform="translate(-153.7 -19.334)" fill="none"/></g><path d="M140.29,15.6a12.9,12.9,0,0,0-.546-1.92,5.179,5.179,0,0,0-.221-.481q-.071-.136-.151-.269a5.136,5.136,0,0,0-4.571-2.6,4.211,4.211,0,0,0-.579.078,4.28,4.28,0,0,0-.844.269c1.554.311,2.15,1.67,3.068,3.064l.116.173q.078.115.16.231a7.224,7.224,0,0,0,1.633,1.66,6.39,6.39,0,0,0,1.021.606,3.25,3.25,0,0,0,1.121.392C140.442,16.41,140.38,15.991,140.29,15.6Z" transform="translate(-94.771 -7.333)" fill="#abd037"/><g transform="translate(41.675 4.131)"><g transform="translate(6.63)"><path d="M185.345,32.135c.254-.107.506-.219.757-.335l-.115.05C185.77,31.941,185.558,32.038,185.345,32.135Z" transform="translate(-180.001 -26.727)" fill="#abd037"/><path d="M167.524,31.954q-.189.386-.345.792c.014-.032.029-.063.041-.093C167.318,32.418,167.418,32.184,167.524,31.954Z" transform="translate(-167.093 -26.836)" fill="#abd037"/><path d="M166.889,35.4c0-.008,0-.015.005-.023l-.012.034.005,0v0Z" transform="translate(-166.882 -29.267)" fill="#abd037"/><path d="M166.924,34.888q.036-.1.074-.2A1.122,1.122,0,0,0,166.924,34.888Z" transform="translate(-166.912 -28.779)" fill="#39b54a"/><path d="M187.959,30.613c.316-.139.626-.3.937-.447l.072-.036-.545.265Q188.191,30.506,187.959,30.613Z" transform="translate(-181.858 -25.54)" fill="#39b54a"/><path d="M168.112,33.865q-.322-.015-.641-.061c-.043-.006-.515-.1-.571-.112h0l.135.032.016,0,.078.016.074.015.02,0a7.827,7.827,0,0,0,3.918-.355,11.426,11.426,0,0,0,1.1-.451c-.364.153-.732.295-1.107.419A8.408,8.408,0,0,1,168.112,33.865Z" transform="translate(-166.896 -27.549)" fill="#39b54a"/><path d="M182.265,16.976a21.087,21.087,0,0,0-1.739-1.277,9.83,9.83,0,0,0-6.65-1.3,8.836,8.836,0,0,0-5.158,2.9,9.452,9.452,0,0,0-1.392,2.086c-.106.23-.206.464-.3.7-.013.03-.027.062-.041.093q-.038.1-.074.2c0,.008,0,.015-.005.023l0,.01v0c.056.014.528.105.571.112q.319.046.641.061a8.408,8.408,0,0,0,3.02-.489c.375-.124.743-.266,1.107-.419.213-.1.426-.194.641-.285l.115-.05q.232-.108.463-.219l.545-.265c.305-.149.611-.3.919-.447h0a15.563,15.563,0,0,1,4.47-1.547,7.622,7.622,0,0,1,2.864.115C182.264,16.985,182.27,16.98,182.265,16.976Z" transform="translate(-166.895 -14.273)" fill="#abd037"/><path d="M171.438,23.358c.09-.549-1.527.024-2.72.238a9.452,9.452,0,0,0-1.392,2.086c-.106.23-.206.464-.3.7-.013.03-.027.062-.041.093q-.038.1-.074.2c0,.008,0,.015-.005.023l0,.01v0c.056.014.528.105.571.112q.319.046.641.061a8.408,8.408,0,0,0,3.02-.489c.375-.124.743-.266,1.107-.419.213-.1.426-.194.641-.285l.115-.05q.232-.108.463-.219l.545-.265c.305-.149.611-.3.919-.447h0C172.794,25.035,171.154,25.1,171.438,23.358Z" transform="translate(-166.895 -20.564)" fill="#39b54a"/></g><path d="M147.822,22a12.9,12.9,0,0,0-.546-1.92,5.183,5.183,0,0,0-.221-.481q-.071-.136-.151-.269a.079.079,0,0,0-.039,0,.083.083,0,0,0-.063.118,3.366,3.366,0,0,1,.38,1.335c0,1.653-1.059-.3-1.357-.4-.047-.016-.071.03-.07.113a.568.568,0,0,1-.995.355c-.2-.235-.415-.491-.633-.761a.084.084,0,0,0-.149.053l.116.173q.078.115.16.231a7.224,7.224,0,0,0,1.633,1.66,6.389,6.389,0,0,0,1.021.606,3.249,3.249,0,0,0,1.121.392C147.974,22.812,147.911,22.393,147.822,22Z" transform="translate(-143.978 -17.866)" fill="#39b54a"/></g></g></g></svg>