<svg xmlns="http://www.w3.org/2000/svg" width="29.771" height="29.769" viewBox="0 0 29.771 29.769"><g transform="translate(0 -0.02)"><g transform="translate(0.496 0.514)"><path d="M36.312,192.676v16.87a1,1,0,0,1-.992.992H8.525a1,1,0,0,1-.992-.992v-16.87l.208-.159.124.159H35.979l.124-.159Z" transform="translate(-7.533 -181.76)" fill="#ededed"/><path d="M34.823,192.676v16.87a1,1,0,0,1-.992.992H8.525a1,1,0,0,1-.992-.992v-16.87H34.491l.124-.159Z" transform="translate(-7.533 -181.76)" fill="#d4e1f4"/><g transform="translate(0.208 0)"><path d="M39.48,18.272l-.124.159L25.8,28.851H24.8L11.242,18.431l-.124-.159,4.753-3.7L22.411,9.5,24.7,7.723a.969.969,0,0,1,1.2,0L28.187,9.5l6.54,5.076Z" transform="translate(-11.118 -7.515)" fill="#eb2027"/><path d="M111.722,42.639v11.5l-1.489,1.146L102.791,61H101.8l-8.931-6.862v-11.5a1,1,0,0,1,.992-.992h16.87A1,1,0,0,1,111.722,42.639Z" transform="translate(-88.114 -39.662)" fill="#eb2027"/></g><path d="M110.233,42.639V55.282L102.791,61H101.8l-8.931-6.862v-11.5a1,1,0,0,1,.992-.992h15.382A1,1,0,0,1,110.233,42.639Z" transform="translate(-87.905 -39.662)" fill="#e3e7f2"/><path d="M39.253,321.044a.982.982,0,0,1-.8.407H11.66a.982.982,0,0,1-.8-.407l11.368-8.827,2.228-1.732a.969.969,0,0,1,1.2,0l2.228,1.732Z" transform="translate(-10.667 -292.672)" fill="#eb2027"/><g transform="translate(0 0)"><path d="M7.728,68.034c.008.011.019.019.027.03a1.027,1.027,0,0,0,.1.111.822.822,0,0,0,.068.056.987.987,0,0,0,.1.068c.027.015.053.031.081.044a.912.912,0,0,0,.126.047c.025.008.05.018.075.024a.993.993,0,0,0,.22.026h1.489a.994.994,0,0,1-.219-.026c-.026-.006-.05-.016-.075-.024a.9.9,0,0,1-.126-.047c-.028-.013-.054-.028-.081-.044a1,1,0,0,1-.1-.068.824.824,0,0,1-.068-.056,1.033,1.033,0,0,1-.1-.111c-.008-.011-.019-.019-.027-.03a.981.981,0,0,1-.194-.585V50.578l.208-.159,4.753-3.7V42.639a1,1,0,0,1,.992-.992H13.488a1,1,0,0,0-.992.992v4.084l-4.753,3.7-.208.159v16.87a.981.981,0,0,0,.2.584Z" transform="translate(-7.534 -39.662)" fill="#fff"/><path d="M208.967,7.834l-.144-.112a.969.969,0,0,0-1.2,0L205.335,9.5h1.489Z" transform="translate(-193.834 -7.514)" fill="#fff"/></g></g><g transform="translate(0 0.02)"><path d="M0,213.118v-16.87H.992v16.87Z" transform="translate(0 -184.838)" fill="#fff"/><g transform="translate(0 0)"><path d="M.308,410.534a.316.316,0,0,0,.089.03.746.746,0,0,0,.1.01.522.522,0,0,0,.352-.144.513.513,0,0,0,.1-.164.507.507,0,0,0-.1-.541.512.512,0,0,0-.164-.1.5.5,0,0,0-.189-.04.522.522,0,0,0-.352.144.5.5,0,0,0,0,.7l.074.06A.375.375,0,0,0,.308,410.534Z" transform="translate(0 -385.767)"/><path d="M29.745,11.3a.513.513,0,0,0-.028-.086.479.479,0,0,0-.05-.074.487.487,0,0,0-.068-.078c-.008-.007-.011-.016-.02-.023l-4.77-3.706V3.491A1.489,1.489,0,0,0,23.321,2H17.943L15.79.331a1.472,1.472,0,0,0-1.81,0L11.828,2H6.45A1.489,1.489,0,0,0,4.962,3.491V7.332L.192,11.038a.487.487,0,0,0-.184.392H0V22.346a.5.5,0,1,0,.992,0V12.186L9.123,18.5a.5.5,0,1,0,.608-.785L1.471,11.3,4.962,8.588v3.834a.5.5,0,0,0,.992,0V3.491a.5.5,0,0,1,.5-.5H23.32a.5.5,0,0,1,.5.5v8.931a.5.5,0,1,0,.992,0V8.588L28.3,11.3l-8.275,6.426a.5.5,0,0,0,.609.784l8.145-6.325V28.021L15.789,17.933a1.472,1.472,0,0,0-1.808,0L.992,28.021V26.315a.5.5,0,0,0-.992,0V28.3a1.471,1.471,0,0,0,.083.469.492.492,0,0,0,.546.744,1.478,1.478,0,0,0,.86.275H28.282a1.478,1.478,0,0,0,.862-.279.49.49,0,0,0,.544-.74,1.472,1.472,0,0,0,.082-.469V11.43c0-.01-.005-.019-.006-.029A.473.473,0,0,0,29.745,11.3ZM14.588,1.114a.476.476,0,0,1,.592,0L16.324,2H13.446Zm0,17.6a.477.477,0,0,1,.591,0L28.159,28.8H1.612Z" transform="translate(0 -0.02)"/><path d="M162.63,94.84h9.924a.5.5,0,1,0,0-.992H162.63a.5.5,0,0,0,0,.992Z" transform="translate(-152.707 -88.392)"/><path d="M162.63,146.04h9.924a.5.5,0,1,0,0-.992H162.63a.5.5,0,0,0,0,.992Z" transform="translate(-152.707 -136.615)"/><path d="M260.963,196.248H256.5a.5.5,0,0,0,0,.992h4.466a.5.5,0,0,0,0-.992Z" transform="translate(-241.116 -184.838)"/></g></g></g></svg>