<svg xmlns="http://www.w3.org/2000/svg" width="16.032" height="32.266" viewBox="0 0 16.032 32.266"><path d="M122.649,21.78h-4.773V18.655a1.272,1.272,0,0,1,1.344-1.445h3.395V12.034L117.91,12c-5.142,0-6.319,3.865-6.319,6.352v3.462H108.6v5.31h2.991V42.249h6.285V27.124h4.235Z" transform="translate(-107.592 -10.992)" fill="#eb2027"/><path d="M150.519,15.361l4.638.034V12.034L150.519,12c-5.142,0-6.319,3.865-6.319,6.352v3.361C144.2,19.226,145.376,15.361,150.519,15.361Z" transform="translate(-140.2 -10.992)" fill="#fff"/><path d="M106.885,32.265H100.6a.99.99,0,0,1-1.008-1.008V17.141H97.608a1.008,1.008,0,1,1,0-2.017H100.6a.99.99,0,0,1,1.008,1.008V30.249h4.268V16.133a.99.99,0,0,1,1.008-1.008h3.327l.336-3.327h-3.663a.99.99,0,0,1-1.008-1.008V7.663a2.263,2.263,0,0,1,2.353-2.454h2.386V2.017h-3.663c-1.613,0-5.344.5-5.344,5.344v3.462a.99.99,0,0,1-1.008,1.008H97.608a1.008,1.008,0,1,1,0-2.017h1.983V7.361c0-3.395,1.916-7.361,7.327-7.361l4.672.034A.99.99,0,0,1,112.6,1.042V6.218a.99.99,0,0,1-1.008,1.008H108.2c-.2,0-.336,0-.336.437V9.78h3.764a1.018,1.018,0,0,1,.739.336,1.09,1.09,0,0,1,.269.773l-.538,5.344a1.019,1.019,0,0,1-1.008.907h-3.227V31.257A.963.963,0,0,1,106.885,32.265Z" transform="translate(-96.6)" fill="#171717"/></svg>