<svg xmlns="http://www.w3.org/2000/svg" width="95.139" height="91.203" viewBox="0 0 95.139 91.203">
  <g id="Group_5980" data-name="Group 5980" transform="translate(-1379.999 -1040.813)">
    <g id="shopping-basket_1_" data-name="shopping-basket (1)" transform="translate(1379.999 1069.972)">
      <path id="Path_12645" data-name="Path 12645" d="M247.341,202.671A1.341,1.341,0,1,0,246,201.329,1.342,1.342,0,0,0,247.341,202.671Zm0,0" transform="translate(-212.34 -171.722)"/>
      <path id="Path_12646" data-name="Path 12646" d="M64.533,19.74H56.448L44.01,2.092A4.041,4.041,0,0,0,38.477.531a4.3,4.3,0,0,0-1.593,5.753,1.442,1.442,0,0,0,.105.166L46.745,19.74H23.257L33.012,6.451a1.517,1.517,0,0,0,.105-.166A4.3,4.3,0,0,0,31.523.53a4.043,4.043,0,0,0-5.531,1.561L13.554,19.74H5.469A5.563,5.563,0,0,0,0,25.381a5.645,5.645,0,0,0,3.718,5.344,1.335,1.335,0,0,0,.836.3,1.284,1.284,0,0,1,.184.013A1.383,1.383,0,0,1,5.9,32.178L10.551,58.57a4.137,4.137,0,0,0,4.036,3.473H55.415a4.137,4.137,0,0,0,4.036-3.473L64.1,32.179a1.383,1.383,0,0,1,1.164-1.145,1.232,1.232,0,0,1,.182-.013,1.333,1.333,0,0,0,.841-.3A5.644,5.644,0,0,0,70,25.381,5.563,5.563,0,0,0,64.533,19.74Zm-25.3-14.9A1.431,1.431,0,0,1,39.8,3a1.347,1.347,0,0,1,1.861.544,1.333,1.333,0,0,0,.09.145L53.067,19.74H50.174ZM28.248,3.688a1.52,1.52,0,0,0,.089-.144A1.349,1.349,0,0,1,30.2,3a1.432,1.432,0,0,1,.567,1.844L19.827,19.74H16.935ZM64.533,28.2H40.47a1.4,1.4,0,0,0,0,2.806H61.58a4.389,4.389,0,0,0-.168.653L56.76,58.065a1.379,1.379,0,0,1-1.345,1.158H14.587a1.379,1.379,0,0,1-1.346-1.157L8.59,31.674a4.365,4.365,0,0,0-.168-.653h21.11a1.411,1.411,0,0,0,0-2.82H5.469a2.822,2.822,0,0,1,0-5.64H64.533a2.822,2.822,0,0,1,0,5.64Zm0,0" transform="translate(0 0)"/>
      <path id="Path_12647" data-name="Path 12647" d="M230.024,249.988A4.028,4.028,0,0,0,226,254.012v10.729a4.024,4.024,0,1,0,8.047,0V254.012A4.023,4.023,0,0,0,230.024,249.988Zm1.341,14.753a1.341,1.341,0,0,1-2.682,0V254.012a1.341,1.341,0,1,1,2.682,0Zm0,0" transform="translate(-195.023 -213.427)"/>
      <path id="Path_12648" data-name="Path 12648" d="M330.023,268.765a4.028,4.028,0,0,0,4.023-4.024V254.012a4.023,4.023,0,1,0-8.047,0v10.729A4.028,4.028,0,0,0,330.023,268.765Zm-1.341-14.753a1.341,1.341,0,1,1,2.682,0v10.729a1.341,1.341,0,1,1-2.682,0Zm0,0" transform="translate(-281.316 -213.427)"/>
      <path id="Path_12649" data-name="Path 12649" d="M130.023,249.988A4.028,4.028,0,0,0,126,254.012v10.729a4.024,4.024,0,1,0,8.047,0V254.012A4.023,4.023,0,0,0,130.023,249.988Zm1.341,14.753a1.341,1.341,0,0,1-2.682,0V254.012a1.341,1.341,0,1,1,2.682,0Zm0,0" transform="translate(-108.729 -213.427)"/>
    </g>
    <path id="Path_7200" data-name="Path 7200" d="M46.96,25.859a2.983,2.983,0,0,1-2.98-2.98H41a5.953,5.953,0,0,0,4.47,5.748v3.191h2.98v-2.98h4.47v-5.96a5.966,5.966,0,0,0-5.96-5.96,2.983,2.983,0,0,1-2.98-2.98V10.96h2.98a2.983,2.983,0,0,1,2.98,2.98h2.98a5.953,5.953,0,0,0-4.47-5.748V5H45.47V7.98H41v5.96a5.966,5.966,0,0,0,5.96,5.96,2.983,2.983,0,0,1,2.98,2.98v2.98Z" transform="translate(1408.809 1042.772)" fill="#51cbc1"/>
    <path id="Path_7201" data-name="Path 7201" d="M51.369,39.738A19.369,19.369,0,1,0,32,20.369,19.391,19.391,0,0,0,51.369,39.738Zm0-35.758A16.389,16.389,0,1,1,34.98,20.369,16.408,16.408,0,0,1,51.369,3.98Z" transform="translate(1404.4 1039.813)" fill="#2c2a2a"/>
    <path id="Path_7203" data-name="Path 7203" d="M47,29h3.893v7.787H47Z" transform="translate(1365.662 1033.222)" fill="#51cbc1"/>
    <path id="Path_7204" data-name="Path 7204" d="M47,35h3.893v3.893H47Z" transform="translate(1390.662 1048.902)" fill="#51cbc1"/>
    <path id="Path_7205" data-name="Path 7205" d="M41,33h3.893v7.787H41Z" transform="translate(1364.982 1018.008)" fill="#51cbc1"/>
    <path id="Path_7206" data-name="Path 7206" d="M41,29h3.893v3.893H41Z" transform="translate(1359.982 1036.222)" fill="#51cbc1"/>
    <path id="Path_7209" data-name="Path 7209" d="M36.947,42.574H35v3.893h1.947a5.847,5.847,0,0,0,5.84-5.84V27H38.893V40.627A1.949,1.949,0,0,1,36.947,42.574Z" transform="translate(1354.302 1034.328)" fill="#51cbc1"/>
    <path id="Path_7210" data-name="Path 7210" d="M31,35h3.893v3.893H31Z" transform="translate(1350.515 1041.902)" fill="#51cbc1"/>
  </g>
</svg>
