<svg xmlns="http://www.w3.org/2000/svg" width="34.569" height="32.369" viewBox="0 0 34.569 32.369"><path d="M32.183,41.006H18.823A8.823,8.823,0,0,1,10,32.183V18.823A8.823,8.823,0,0,1,18.823,10h13.36a8.823,8.823,0,0,1,8.823,8.823v13.36A8.823,8.823,0,0,1,32.183,41.006Z" transform="translate(-10 -8.636)" fill="#eb2027"/><path d="M73.41,79.46H60.05A6.05,6.05,0,0,1,54,73.41V60.05A6.05,6.05,0,0,1,60.05,54H73.41a6.05,6.05,0,0,1,6.05,6.05V73.41A6.05,6.05,0,0,1,73.41,79.46Z" transform="translate(-48.294 -50.597)" fill="#fff"/><circle cx="8" cy="8" r="8" transform="translate(10.438 8)" fill="#ff5a5a"/><circle cx="5" cy="5" r="5" transform="translate(13.438 11)" fill="#fff"/><ellipse cx="1.765" cy="1.765" rx="1.765" ry="1.765" transform="translate(24.943 6.097)" fill="#ff5a5a"/><path d="M22.813,32.266H9.453A9.464,9.464,0,0,1,0,22.813V9.453A9.464,9.464,0,0,1,9.453,0h13.36a9.464,9.464,0,0,1,9.453,9.453v13.36A9.464,9.464,0,0,1,22.813,32.266ZM9.453,1.26A8.2,8.2,0,0,0,1.26,9.453v13.36a8.2,8.2,0,0,0,8.193,8.193h13.36a8.2,8.2,0,0,0,8.193-8.193V9.453A8.2,8.2,0,0,0,22.813,1.26Z" transform="translate(2.303 0)"/><path d="M64.04,70.72h-3.8a.63.63,0,1,1,0-1.26h3.8a5.426,5.426,0,0,0,5.42-5.42V50.68a5.426,5.426,0,0,0-5.42-5.42H50.68a5.426,5.426,0,0,0-5.42,5.42V64.04a5.426,5.426,0,0,0,5.42,5.42h3.844a.63.63,0,0,1,0,1.26H50.68A6.688,6.688,0,0,1,44,64.04V50.68A6.688,6.688,0,0,1,50.68,44H64.04a6.688,6.688,0,0,1,6.68,6.68V64.04A6.688,6.688,0,0,1,64.04,70.72Z" transform="translate(-38.924 -41.227)"/><path d="M246.63,449.26a.63.63,0,1,1,.446-.185A.635.635,0,0,1,246.63,449.26Z" transform="translate(-228.194 -419.767)"/><path d="M158.745,153.832a.63.63,0,0,1-.433-1.089l.028-.026a.63.63,0,0,1,.862.92l-.025.023A.628.628,0,0,1,158.745,153.832Z" transform="translate(-145.847 -142.934)"/><path d="M126.7,135.393a8.7,8.7,0,0,1-7.567-12.985.63.63,0,1,1,1.1.622,7.437,7.437,0,1,0,6.471-3.77,7.353,7.353,0,0,0-3.406.824.63.63,0,1,1-.578-1.12,8.7,8.7,0,1,1,3.984,16.429Z" transform="translate(-108.261 -110.564)"/><path d="M171.672,177.344a5.672,5.672,0,1,1,5.672-5.672A5.678,5.678,0,0,1,171.672,177.344Zm0-10.083a4.411,4.411,0,1,0,4.411,4.411A4.416,4.416,0,0,0,171.672,167.26Z" transform="translate(-153.236 -155.539)"/><path d="M351.645,91.54a2.395,2.395,0,1,1,2.395-2.395A2.4,2.4,0,0,1,351.645,91.54Zm0-3.529a1.134,1.134,0,1,0,1.134,1.134A1.136,1.136,0,0,0,351.645,88.01Z" transform="translate(-324.937 -81.283)"/></svg>