<svg xmlns="http://www.w3.org/2000/svg" width="86.021" height="89.586" viewBox="0 0 86.021 89.586">
  <g id="Group_5977" data-name="Group 5977" transform="translate(-1035.633 -1040.008)">
    <g id="leaves" transform="translate(1021.618 1045.22)">
      <path id="Path_7192" data-name="Path 7192" d="M92.553,76.535c-4.173-4.17-19.225-5.15-19.864-5.19a.99.99,0,0,0-1.049,1.049c.04.639,1.019,15.692,5.191,19.863a11.107,11.107,0,0,0,14.987.667l1.893,1.893a.99.99,0,0,0,1.4-1.4l-1.893-1.893a11.11,11.11,0,0,0-.665-14.988Zm-7.861,17a9.078,9.078,0,0,1-6.461-2.677c-2.511-2.511-3.852-10.79-4.385-15.907L85.169,86.273H81.095a.989.989,0,1,0,0,1.979h6.053l3.266,3.266A9.068,9.068,0,0,1,84.692,93.534Zm3.856-6.681V80.8a.99.99,0,0,0-1.979,0v4.075L75.246,73.55c5.115.531,13.4,1.872,15.908,4.385a9.133,9.133,0,0,1,.66,12.183Zm0,0" transform="translate(-56.55 -76.555)" fill="#51cbc1"/>
      <path id="Path_7193" data-name="Path 7193" d="M71.928,237.083a.989.989,0,0,0,.7.29l.061,0c.639-.04,15.691-1.02,19.864-5.19a11.11,11.11,0,0,0,.665-14.988l1.893-1.893a.989.989,0,0,0-1.4-1.4l-1.893,1.893a11.107,11.107,0,0,0-14.987.667c-4.172,4.17-5.151,19.224-5.191,19.863A.991.991,0,0,0,71.928,237.083Zm21.9-12.763a9.079,9.079,0,0,1-2.676,6.462c-2.511,2.51-10.791,3.852-15.907,4.384l11.323-11.323v4.075a.99.99,0,0,0,1.979,0v-6.054l3.265-3.265A9.065,9.065,0,0,1,93.83,224.32Zm-15.6-6.461a9.131,9.131,0,0,1,12.183-.661l-3.265,3.266H81.095a.989.989,0,1,0,0,1.979h4.074L73.846,233.767C74.377,228.651,75.718,220.371,78.231,217.859Zm0,0" transform="translate(-56.55 -152.998)"/>
      <path id="Path_7194" data-name="Path 7194" d="M236.619,237.371l.062,0a.99.99,0,0,0,.987-1.05c-.04-.639-1.019-15.692-5.191-19.863a11.108,11.108,0,0,0-14.987-.666L215.6,213.9a.989.989,0,0,0-1.4,1.4l1.893,1.893a11.108,11.108,0,0,0,.665,14.988C220.929,236.351,235.981,237.331,236.619,237.371Zm-12-22.189a9.078,9.078,0,0,1,6.462,2.677c2.511,2.511,3.852,10.79,4.385,15.907L224.14,222.443h4.074a.989.989,0,1,0,0-1.979h-6.054L218.9,217.2A9.066,9.066,0,0,1,224.617,215.182ZM217.5,218.6l3.265,3.265v6.054a.99.99,0,0,0,1.979,0v-4.075l11.323,11.323c-5.115-.531-13.4-1.871-15.908-4.384a9.133,9.133,0,0,1-.66-12.183Zm0,0" transform="translate(-140.995 -152.998)" fill="#51cbc1"/>
    </g>
    <path id="Path_12624" data-name="Path 12624" d="M222.415,231.694l-4.179,4.065c-.607.59-1.391,1.261.077,2.251.838.653,1.232.326,2.2-.7,1.142-1.214,2.338-2.433,3.573-3.552,2.368-2.146,3.251-3.71,3.068-4.666C226.691,226.7,223.21,230.921,222.415,231.694Zm2.569-6.587c.832-1.652.23-3.169-1.516-2.311a16.913,16.913,0,0,0-4.188,3.426c-1.55,1.564-3.359,3.21-4.862,4.561-1.091.981-2.167,1.775-1.171,3.079a3.149,3.149,0,0,0,1.631,1.357c.994.172,2.628-1.694,3.333-2.38l2.732-2.657A21.8,21.8,0,0,0,224.985,225.108Zm-21.433,1.533c.311.332,1.253,1.286,1.956,1.214.845-.087,2.459-2.188,2.819-2.563a9.838,9.838,0,0,0,2.165-2.735c.865-1.968-.026-3.607-3.184-1.5a17,17,0,0,0-2.135,1.731C203.111,224.714,202.709,225.74,203.551,226.64Zm6.377,4.055c1.245.738,2.094-.6,3.077-1.484,1.162-1.044,2.507-2.258,3.763-3.473a30.131,30.131,0,0,0,2.708-2.855c1.409-1.792,1.128-3.785-1.23-2.753-1.847.808-4.543,3.126-6.564,4.863-1.108.953-2.035,1.97-3.048,3.019-.662.686-1.38,1.141-.146,1.831C208.976,230.117,209.443,230.408,209.928,230.7Zm-35.472-3.9a1.055,1.055,0,1,1-.083-2.109,82.493,82.493,0,0,1,11.3.16c2.832.3,4.834.932,5.642,1.977,3.257,4.214,6.926,5.489,10.678,6.792,3.086,1.072,6.224,2.163,9.329,4.784a3.608,3.608,0,0,0-.716-4.412c-1.322-1.466-3.263-2.35-4.938-3.311a16.713,16.713,0,0,1-3.65-2.595c-1.88-2.01-1.478-3.839,1.721-6.831,2.72-2.544,4.881-3.408,6.378-3.282a2.865,2.865,0,0,1,1.878.865,3.394,3.394,0,0,1,.873,2.418,16.972,16.972,0,0,1,5.607-3.31c-.871-1.469-4.489-3.92-5.671-2.873a6.222,6.222,0,0,1-7.36.815c-1.141-.722-2-2.063-1.194-3.4-2.6.257-6.278.568-10.7.635-6.11.092-11.717-.945-17.7-1.836a1.057,1.057,0,1,1,.306-2.092c5.843.871,24.644,1.5,27.156,1.262,3.439-.326,3.188-.809,4.541-2.167,1.492-1.5,3.215-2.711,4.755-2.818,2.744-.191,6.945-.748,9.384.5,3.415,1.754,6.781,4.16,10.307,5.6,1.182.482,3.031.582,6.518.064,3.666-.544,18.2-3.721,18.349-3.157s-14.308,4.694-18.043,5.249c-3.913.581-6.1.424-7.618-.2-3.612-1.474-6.992-3.9-10.472-5.682-1.876-.963-6.039-.429-8.284-.273-.945.066-2.216,1.045-3.424,2.223-.98.955-2.912,4.416-1.776,4.7a4.23,4.23,0,0,0,4.192-1.345c1.478-1.63,11.382-1.838,12.535-1.317a1.057,1.057,0,0,1-.868,1.927,12.992,12.992,0,0,0-6.677-.941c1.78,1.038,6.268,7.375,9.083,7.8a8.667,8.667,0,0,0,4.735-.656,1.056,1.056,0,0,1,1.385.558c.228.537-3.211,2.236-4.423,2.292a5.158,5.158,0,0,1-.714,3.394,2.928,2.928,0,0,1,2.465,2.748c.1,1.525-4.786,7.331-5.341,7.884-.691.688-2.525,2.232.235.882a25.624,25.624,0,0,0,2.654-1.548,35.014,35.014,0,0,0,7.148-5.911,15.033,15.033,0,0,0,2.333-6.251,1.057,1.057,0,0,1,.864-1.22c.575-.1,1.351,3.237,1.011,4.538a14.868,14.868,0,0,1,2.518-.437c2.253-.225,5.082-.539,7.9-.851,3.454-.383,6.892-.764,9.654-1.015a1.055,1.055,0,0,1,1.146.955c.052.58-7.019,1.767-10.568,2.161-2.7.3-11.81,1.977-13.327,3.576a36.865,36.865,0,0,1-7.529,6.225,19.888,19.888,0,0,1-4.93,2.5,6.359,6.359,0,0,1-5.9-.673,7.731,7.731,0,0,1-1.876-2.421c-.468.03-3.521,4.3-4.537,3.348-3.055-2.872-6.268-3.989-9.424-5.085-4.05-1.407-8.012-2.784-11.653-7.5-.422-.546-1.928-.923-4.195-1.167A80.5,80.5,0,0,0,174.456,226.792Z" transform="translate(862.274 860.697)"/>
  </g>
</svg>
