<svg xmlns="http://www.w3.org/2000/svg" width="30.066" height="30.066" viewBox="0 0 30.066 30.066"><path d="M213.5,30.066h-2.218a.853.853,0,0,1,0-1.706H213.5a2.968,2.968,0,0,0,2.965-2.965V4.671A2.968,2.968,0,0,0,213.5,1.706H200.7A.853.853,0,0,1,200.7,0H213.5a4.676,4.676,0,0,1,4.671,4.671V25.4A4.676,4.676,0,0,1,213.5,30.066Z" transform="translate(-188.109)" fill="#080808"/><path d="M17.011,30.066H4.671A4.676,4.676,0,0,1,0,25.4V4.671A4.676,4.676,0,0,1,4.671,0H6.59a.853.853,0,0,1,0,1.706H4.671A2.968,2.968,0,0,0,1.706,4.671V25.4A2.968,2.968,0,0,0,4.671,28.36H17.011a.853.853,0,0,1,0,1.706Z" fill="#eb2027"/><path d="M111.66,112.936a1.917,1.917,0,1,1-1.93,1.915,1.925,1.925,0,0,1,1.93-1.915Z" transform="translate(-103.286 -106.304)" fill="#f4b2b0"/><path d="M98.018,103.953H97.94a2.7,2.7,0,0,1-1.922-.808,2.777,2.777,0,1,1,2,.808Zm-.042-1.706h.042a1.061,1.061,0,0,0,.717-1.814,1.051,1.051,0,0,0-.746-.315,1.066,1.066,0,0,0-.762,1.822,1.021,1.021,0,0,0,.714.306h.036Z" transform="translate(-89.615 -92.634)"/><path d="M229.8,227.492v-5.513a1.878,1.878,0,0,1,1.814-1.891,1.854,1.854,0,0,1,1.893,1.853v5.55h3.311v-5.759c0-3.56-1.917-5.126-3.927-5.126-2.684,0-3.34,1.542-3.341,1.542v-1.4h-3.054v10.739h3.3Z" transform="translate(-215.394 -201.687)" fill="#eb2027"/><path d="M223.147,214.675h-3.311a.853.853,0,0,1-.853-.853v-5.55a1,1,0,0,0-1-1h-.022a1.026,1.026,0,0,0-.979,1.038v5.513a.853.853,0,0,1-.853.853h-3.3a.853.853,0,0,1-.853-.853V203.083a.853.853,0,0,1,.853-.853h3.054a.853.853,0,0,1,.74.428,5.59,5.59,0,0,1,2.6-.574c2.379,0,4.78,1.849,4.78,5.979v5.759A.853.853,0,0,1,223.147,214.675Zm-2.458-1.706h1.605v-4.906c0-3.15-1.588-4.273-3.074-4.273-2,0-2.528.972-2.564,1.042a.853.853,0,0,1-1.63-.352v-.544h-1.349v9.033h1.6v-4.66a2.74,2.74,0,0,1,2.65-2.743,2.707,2.707,0,0,1,2.763,2.706v4.7Z" transform="translate(-199.525 -190.217)"/><path d="M117.613,229.838V219.1h-3.3v10.738Z" transform="translate(-109.796 -204.033)" fill="#eb2027"/><path d="M103.943,217.019h-3.3a.853.853,0,0,1-.853-.853V205.428a.853.853,0,0,1,.853-.853h3.3a.853.853,0,0,1,.853.853v10.739A.853.853,0,0,1,103.943,217.019Zm-2.451-1.706h1.6v-9.033h-1.6Z" transform="translate(-93.926 -192.562)"/></svg>