<svg xmlns="http://www.w3.org/2000/svg" width="34.501" height="34.504" viewBox="0 0 34.501 34.504"><g transform="translate(-0.029)"><path d="M42.44,36.234,36.227,31.41a2.008,2.008,0,0,0-2.083-.234l-2.793,1.3a1.983,1.983,0,0,1-2.057-.231,52.934,52.934,0,0,1-4.736-4.212,52.861,52.861,0,0,1-4.231-4.726,1.953,1.953,0,0,1-.221-2.051l1.3-2.8a2,2,0,0,0-.234-2.08l-4.834-6.191a1.348,1.348,0,0,0-1.852-.264c-4.661,3.352-4.8,4.563-4.8,4.69a11.812,11.812,0,0,0,1.432,5.446c1.689,3.47,4.84,7.519,9.365,12.043s8.583,7.652,12.06,9.338a11.909,11.909,0,0,0,5.462,1.429c.127,0,1.341-.133,4.7-4.788A1.338,1.338,0,0,0,42.44,36.234Z" transform="translate(-9.009 -9.017)" fill="#eb2027"/><path d="M68.59,10.186a1.348,1.348,0,0,0-1.852-.264c-.371.267-.71.518-1.022.755l7.249,9.28.693-1.5a2,2,0,0,0-.234-2.08Zm26.1,26.04-6.214-4.817a2.008,2.008,0,0,0-2.083-.234l-1.507.7,9.277,7.255c.247-.326.5-.671.778-1.051a1.338,1.338,0,0,0-.251-1.846v-.006Z" transform="translate(-61.26 -9.015)" fill="#fff"/><path d="M272.294,62.272a1.79,1.79,0,1,0,1.79,1.79,1.79,1.79,0,0,0-1.79-1.79Zm-.488-4.557a1.3,1.3,0,0,0,0,2.6,4.231,4.231,0,0,1,4.231,4.231,1.3,1.3,0,1,0,2.6,0A6.836,6.836,0,0,0,271.806,57.715Zm0-4.557a1.3,1.3,0,0,0,0,2.6,8.788,8.788,0,0,1,8.788,8.788,1.3,1.3,0,1,0,2.6,0A11.392,11.392,0,0,0,271.806,53.158Z" transform="translate(-252.247 -49.576)" fill="#eb2027"/><g transform="translate(1.328 4.559)" opacity="0.1"><path d="M37.532,68.95a9.114,9.114,0,0,1,9.114,9.114.977.977,0,0,0,1.953,0v-.521a.979.979,0,1,1-1.953-.13A9.114,9.114,0,0,0,37.532,68.3a.977.977,0,0,1-.918-.651.97.97,0,0,0,.918,1.3Zm0,4.557a4.557,4.557,0,0,1,4.557,4.557.977.977,0,0,0,1.953,0,2.924,2.924,0,0,0-.023-.446.976.976,0,0,1-1.93-.205,4.557,4.557,0,0,0-4.557-4.557.977.977,0,0,1-.918-.651.97.97,0,0,0,.918,1.3Zm.488,5.533a1.455,1.455,0,0,0,1.426-1.79,1.461,1.461,0,0,1-2.851,0,1.455,1.455,0,0,0,1.426,1.79Zm-9.563-3.987,1.3-2.786a1.347,1.347,0,0,0,.062-.977,1.353,1.353,0,0,1-.062.163l-1.3,2.786a2.623,2.623,0,0,0-.215,1.507A2.642,2.642,0,0,1,28.457,75.053Zm22.615,15.91c-2.405,3.34-3.776,4.407-4.2,4.515a11.01,11.01,0,0,1-5.13-1.364c-3.408-1.654-7.4-4.755-11.861-9.215s-7.565-8.463-9.221-11.864a12.23,12.23,0,0,1-1.338-4.388.608.608,0,0,0-.026.075,11.054,11.054,0,0,0,1.364,5.13c1.657,3.4,4.759,7.392,9.221,11.858s8.463,7.565,11.861,9.218a11.009,11.009,0,0,0,5.13,1.364c.41-.107,1.79-1.178,4.2-4.518A.69.69,0,0,0,51.073,90.963Z" transform="translate(-19.301 -67.648)"/></g><g transform="translate(0.029 0)"><path d="M63.832,26.414,70.667,35.2l.514-.4-6.835-8.788ZM83.5,47.116l-.4.511,9.114,7.161.4-.511ZM79.55,36.632a2.116,2.116,0,1,0,2.116,2.116A2.116,2.116,0,0,0,79.55,36.632Zm0,3.58a1.465,1.465,0,1,1,1.465-1.465A1.465,1.465,0,0,1,79.55,40.212Zm5.045.651a1.628,1.628,0,0,0,1.628-1.628,7.161,7.161,0,0,0-7.161-7.161,1.628,1.628,0,0,0,0,3.255,3.906,3.906,0,0,1,3.906,3.906A1.627,1.627,0,0,0,84.6,40.863Zm-5.533-6.184a.977.977,0,0,1,0-1.953,6.51,6.51,0,0,1,6.51,6.51.977.977,0,0,1-1.953,0A4.557,4.557,0,0,0,79.062,34.679Zm0-3.906a8.463,8.463,0,0,1,8.463,8.463,1.628,1.628,0,0,0,3.255,0A11.718,11.718,0,0,0,79.062,27.518a1.627,1.627,0,0,0,0,3.255Zm0-2.6A11.067,11.067,0,0,1,90.129,39.236a.977.977,0,0,1-1.953,0,9.114,9.114,0,0,0-9.114-9.114.976.976,0,1,1,0-1.953Z" transform="translate(-59.532 -24.261)" fill="#171c1f"/><path d="M33.763,26.692l-6.2-4.814a2.656,2.656,0,0,0-1.628-.56h0a2.658,2.658,0,0,0-1.123.251l-2.786,1.3a1.325,1.325,0,0,1-1.377-.153,52.027,52.027,0,0,1-4.671-4.163,52.055,52.055,0,0,1-4.16-4.664,1.325,1.325,0,0,1-.153-1.377l1.3-2.786a2.659,2.659,0,0,0-.326-2.757L7.841.77A2,2,0,0,0,5.1.376C3.124,1.8.029,4.233.029,5.6c0,1.992.326,7.311,10.966,17.941S26.944,34.5,28.936,34.5c1.361,0,3.805-3.1,5.208-5.061A2,2,0,0,0,33.763,26.692Zm-.651,1.979c-2.418,3.353-3.789,4.424-4.209,4.531a11.01,11.01,0,0,1-5.13-1.364c-3.408-1.654-7.4-4.755-11.861-9.218S4.348,14.158,2.695,10.763A11.018,11.018,0,0,1,1.331,5.63c.107-.42,1.175-1.787,4.518-4.192a.693.693,0,0,1,.954.133l4.824,6.2a1.351,1.351,0,0,1,.16,1.406l-1.3,2.786a2.6,2.6,0,0,0,.306,2.728,53.555,53.555,0,0,0,4.264,4.785,53.555,53.555,0,0,0,4.785,4.264,2.627,2.627,0,0,0,2.728.306l2.786-1.3a1.347,1.347,0,0,1,.573-.127,1.363,1.363,0,0,1,.833.286l6.2,4.824a.69.69,0,0,1,.14.957Z" transform="translate(-0.029 0)" fill="#171c1f"/></g></g></svg>