<svg xmlns="http://www.w3.org/2000/svg" width="36.858" height="31.125" viewBox="0 0 36.858 31.125"><path d="M44.674,59.513a14.214,14.214,0,0,1-4.085,1.124A7.165,7.165,0,0,0,43.721,56.7a14.176,14.176,0,0,1-4.529,1.725A7.111,7.111,0,0,0,26.9,63.291a7.384,7.384,0,0,0,.181,1.62,20.194,20.194,0,0,1-14.665-7.43,7.112,7.112,0,0,0,2.2,9.491,7,7,0,0,1-3.215-.888v.087a7.131,7.131,0,0,0,5.7,6.983,7.336,7.336,0,0,1-1.872.241,7.185,7.185,0,0,1-1.344-.125,7.137,7.137,0,0,0,6.644,4.941,14.3,14.3,0,0,1-8.836,3.036A15.267,15.267,0,0,1,10,81.152a20.131,20.131,0,0,0,10.908,3.193c13.077,0,20.231-10.835,20.231-20.228l-.022-.921a14.329,14.329,0,0,0,3.556-3.684Z" transform="translate(-10.001 -53.221)" fill="#eb2027"/><path d="M11.612,75.751a20.88,20.88,0,0,1-11.288-3.3.7.7,0,0,1,.458-1.294,14.471,14.471,0,0,0,1.615.09,13.516,13.516,0,0,0,6.95-1.893,7.84,7.84,0,0,1-5.429-5.163.7.7,0,0,1,.8-.909l.013,0A7.856,7.856,0,0,1,1.4,56.872v-.087a.7.7,0,0,1,1.045-.617q.279.154.564.278a7.826,7.826,0,0,1-.5-8.621.7.7,0,0,1,1.154-.089,19.63,19.63,0,0,0,4.273,3.894.7.7,0,0,1-.786,1.17,21.024,21.024,0,0,1-3.868-3.345,6.414,6.414,0,0,0,2.424,7.63A.7.7,0,0,1,5.3,58.378a7.539,7.539,0,0,1-2.406-.459,6.439,6.439,0,0,0,5.051,5.245.7.7,0,0,1,.04,1.372,8.016,8.016,0,0,1-2.052.265q-.117,0-.232,0a6.437,6.437,0,0,0,5.548,3.41.7.7,0,0,1,.419,1.26,14.878,14.878,0,0,1-8.1,3.142,19.478,19.478,0,0,0,8.045,1.733A19.336,19.336,0,0,0,31.138,54.827l-.021-.913a.7.7,0,0,1,.293-.589,13.618,13.618,0,0,0,1.9-1.648,14.783,14.783,0,0,1-1.931.361.7.7,0,0,1-.445-1.3,6.436,6.436,0,0,0,1.916-1.761,14.823,14.823,0,0,1-2.818.844.7.7,0,0,1-.649-.21,6.406,6.406,0,0,0-11.076,4.386,6.722,6.722,0,0,0,.164,1.466.7.7,0,0,1-.723.858A21.019,21.019,0,0,1,13.3,55.61a.7.7,0,0,1,.369-1.36,19.564,19.564,0,0,0,3.271.594,7.983,7.983,0,0,1-.046-.852,7.816,7.816,0,0,1,13.231-5.636,13.468,13.468,0,0,0,3.938-1.564.7.7,0,0,1,1.03.824,7.887,7.887,0,0,1-1.311,2.455,13.665,13.665,0,0,0,1.308-.5.7.7,0,0,1,.872,1.035,14.969,14.969,0,0,1-3.43,3.642l.013.555c0,.005,0,.011,0,.017a21.638,21.638,0,0,1-5.388,14.1,19.842,19.842,0,0,1-6.574,4.925A21.181,21.181,0,0,1,11.612,75.751Zm-1.23-21.241a.7.7,0,0,1-.293-.064l-.033-.015a.7.7,0,0,1,.591-1.28l.029.013a.7.7,0,0,1-.294,1.346Z" transform="translate(0.775 -46.177)"/><path d="M362.238,289.007a.7.7,0,0,1-.6-1.066v0a.7.7,0,1,1,.6,1.068Z" transform="translate(-335.28 -270.583)"/><path d="M277.26,322.076a.7.7,0,0,1-.35-1.317,15.712,15.712,0,0,0,4.335-3.671.7.7,0,0,1,1.088.9,17.12,17.12,0,0,1-4.723,4A.7.7,0,0,1,277.26,322.076Z" transform="translate(-256.289 -297.758)"/></svg>