<svg xmlns="http://www.w3.org/2000/svg" width="43.26" height="30.506" viewBox="0 0 43.26 30.506"><path d="M72.078,89.022v20.6a1.041,1.041,0,0,1-1.022,1.022H41.022A1.041,1.041,0,0,1,40,109.622v-20.6A1.041,1.041,0,0,1,41.022,88H71.056A1.1,1.1,0,0,1,72.078,89.022ZM63.9,98.614a.826.826,0,0,0-.393-.708L52.5,92.4a1.34,1.34,0,0,0-.786,0,.826.826,0,0,0-.393.708v11.007a.938.938,0,0,0,.393.708.709.709,0,0,0,.393.079.473.473,0,0,0,.314-.079l11.007-5.5A.688.688,0,0,0,63.9,98.614Z" transform="translate(-32.75 -84.069)" fill="#ee5656"/><path d="M187.106,179.528l-7.076,3.764L180,177.9a1.141,1.141,0,0,1,1.572-1.022Z" transform="translate(-158.991 -164.128)" fill="#fff8ef"/><path d="M161.2,137.4v11.528l2.83-1.287v-5.268c0-.138.088-.167.1-.167a.01.01,0,0,1,.01.01l.02.01,5.415,2.663,3.292-1.651Z" transform="translate(-142.039 -128.614)" fill="#d9cdc1"/><path d="M165.185,137.929l-8.491-4.246v8.491l.865-.472,6.447-3.224Zm2.123.708-11.007,5.5a.473.473,0,0,1-.314.079.589.589,0,0,1-.393-.079.826.826,0,0,1-.393-.708V132.426a.826.826,0,0,1,.393-.708.714.714,0,0,1,.786,0l11.007,5.5a.826.826,0,0,1,.393.708A.688.688,0,0,1,167.308,138.637Z" transform="translate(-136.628 -123.384)" fill="#42210b"/><path d="M44.906,59H14.872A3.83,3.83,0,0,0,11,62.872v20.6a3.83,3.83,0,0,0,3.872,3.872H44.906a3.83,3.83,0,0,0,3.872-3.872v-20.6A3.83,3.83,0,0,0,44.906,59Zm.531,24.472a.555.555,0,0,1-.531.531H14.872a.555.555,0,0,1-.531-.531v-20.6a.555.555,0,0,1,.531-.531H44.906a.555.555,0,0,1,.531.531Z" transform="translate(-11 -57.186)" fill="#e94545"/><path d="M4.953,49.651a3.356,3.356,0,0,0-3.381,3.381v20.6a3.356,3.356,0,0,0,3.381,3.381H34.987a3.356,3.356,0,0,0,3.381-3.381V52.953a3.356,3.356,0,0,0-3.381-3.381H4.953Zm-4.875,3.3A4.933,4.933,0,0,1,5.032,48H34.987a4.933,4.933,0,0,1,4.953,4.953v20.6a4.933,4.933,0,0,1-4.953,4.953H4.953A4.983,4.983,0,0,1,0,73.553v-20.6Z" transform="translate(3.319 -48)"/></svg>